{"title":"The Town DVDRip XviD-DiAMOND","uid":6006602,"size":1493946218,"categoryP":"video","categoryS":"movies","magnet":"?xt=urn:btih:414393157779c042acda12acbb97991a5dd7192c&amp;dn=The+Town+DVDRip+XviD-DiAMOND&amp;tr=udp%3A%2F%2Ftracker.openbittorrent.com%3A80&amp;tr=udp%3A%2F%2Fopen.demonii.com%3A1337&amp;tr=udp%3A%2F%2Ftracker.coppersurfer.tk%3A6969&amp;tr=udp%3A%2F%2Fexodus.desync.com%3A6969","seeders":0,"leechers":1,"uploader":"IwannaFan2","files":10,"time":1291339561,"description":"Filename:\nThe Town DVDRip XviD-DiAMOND\n &lt;a href=&quot;\nhttp://www.imdb.com/title/tt0840361/&quot; rel=&quot;nofollow&quot; target=&quot;_NEW&quot;&gt;\nhttp://www.imdb.com/title/tt0840361/&lt;/a&gt;\n\n[IMG]http://i.min.us/idwZqc.jpg[/IMG]\n[IMG]http://i.min.us/ibbTLc.png[/IMG]\n[IMG]http://i.min.us/ibgqz0.png[/IMG]\n[IMG]http://i.min.us/ibgoru.png[/IMG]\n[IMG]http://i.min.us/ibcv2K.png[/IMG]\n\nVideo\nID                               : 0\nFormat                           : MPEG-4 Visual\nFormat profile                   : AdvancedSimple@L5\nFormat settings, BVOP            : Yes\nFormat settings, QPel            : No\nFormat settings, GMC             : No warppoints\nFormat settings, Matrix          : Default (MPEG)\nMuxing mode                      : Packed bitstream\nCodec ID                         : XVID\nCodec ID/Hint                    : XviD\nDuration                         : 2h 5mn\nBit rate                         : 1 173 Kbps\nWidth                            : 640 pixels\nHeight                           : 272 pixels\nDisplay aspect ratio             : 2.35:1\nFrame rate                       : 23.976 fps\nResolution                       : 24 bits\nColorimetry                      : 4:2:0\nScan type                        : Progressive\nBits/(Pixel*Frame)               : 0.281\nStream size                      : 1.02 GiB (75%)\nWriting library                  : XviD 1.2.1 (UTC 2008-12-04)\n\nAudio\nID                               : 1\nFormat                           : AC-3\nFormat/Info                      : Audio Coding 3\nCodec ID                         : 2000\nDuration                         : 2h 4mn\nBit rate mode                    : Constant\nBit rate                         : 384 Kbps\nChannel(s)                       : 6 channels\nChannel positions                : Front: L C R, Surround: L R, LFE\nSampling rate                    : 48.0 KHz\nStream size                      : 343 MiB (24%)\nAlignment                        : Split accross interleaves\nInterleave, duration             : 42 ms (1.00 video frame)\nInterleave, preload duration     : 500 ms","torrent":{"xt":"urn:btih:414393157779c042acda12acbb97991a5dd7192c","amp;dn":"The+Town+DVDRip+XviD-DiAMOND","amp;tr":["udp%3A%2F%2Ftracker.openbittorrent.com%3A80","udp%3A%2F%2Fopen.demonii.com%3A1337","udp%3A%2F%2Ftracker.coppersurfer.tk%3A6969","udp%3A%2F%2Fexodus.desync.com%3A6969"],"infoHash":"414393157779c042acda12acbb97991a5dd7192c","infoHashBuffer":{"type":"Buffer","data":[65,67,147,21,119,121,192,66,172,218,18,172,187,151,153,26,93,215,25,44]},"announce":[],"urlList":[]}}